# xmcd
#
# Track frame offsets: 
#        150
#        2987
#        17850
#        21207
#        29844
#        32782
#        52915
#        58397
#        66857
#        68515
#        74552
#        76710
#        95105
#        98185
#        108547
#        115687
#        132970
#        135647
#        141995
#        144427
#        154662
#        158400
#        172440
#        175550
#
# Disc length: 2514 seconds
#
# Revision: 0
# Processed by: cddbd v1.5.2PL0 Copyright (c) Steve Scherf et al.
# Submitted via: ExactAudioCopy v0.95b4
#
DISCID=5609d018
DTITLE=朱宗慶打擊樂集5 - 演奏ㄅ動物狂歡節
DYEAR=2000
DGENRE=Country
TTITLE0=序曲及獅王
TTITLE1=序曲及獅王
TTITLE2=母雞與公雞
TTITLE3=母雞與公雞
TTITLE4=烏龜
TTITLE5=烏龜
TTITLE6=大象
TTITLE7=大象
TTITLE8=袋鼠
TTITLE9=袋鼠
TTITLE10=水族館
TTITLE11=水族館
TTITLE12=長耳人
TTITLE13=長耳人
TTITLE14=林中杜鵑
TTITLE15=林中杜鵑
TTITLE16=鳥園
TTITLE17=鳥園
TTITLE18=化石
TTITLE19=化石
TTITLE20=天鵝
TTITLE21=天鵝
TTITLE22=終曲
TTITLE23=終曲
EXTD=
EXTT0=
EXTT1=
EXTT2=
EXTT3=
EXTT4=
EXTT5=
EXTT6=
EXTT7=
EXTT8=
EXTT9=
EXTT10=
EXTT11=
EXTT12=
EXTT13=
EXTT14=
EXTT15=
EXTT16=
EXTT17=
EXTT18=
EXTT19=
EXTT20=
EXTT21=
EXTT22=
EXTT23=
PLAYORDER=
